<svg width="22" height="22" viewBox="0 0 22 22" fill="none" xmlns="http://www.w3.org/2000/svg">
<g clip-path="url(#clip0_315326_59)">
<path fill-rule="evenodd" clip-rule="evenodd" d="M6.84294 0.977187C7.91819 0.927687 8.26102 0.916687 11 0.916687C13.739 0.916687 14.0819 0.928604 15.1562 0.977187C16.2305 1.02577 16.9639 1.19719 17.6055 1.4456C18.2774 1.69952 18.887 2.09644 19.3912 2.60977C19.9045 3.11302 20.3005 3.72169 20.5535 4.39452C20.8029 5.03619 20.9734 5.76952 21.0229 6.84202C21.0724 7.9191 21.0834 8.26194 21.0834 11C21.0834 13.739 21.0714 14.0819 21.0229 15.1571C20.9743 16.2296 20.8029 16.9629 20.5535 17.6046C20.3005 18.2775 19.9039 18.8872 19.3912 19.3912C18.887 19.9045 18.2774 20.3005 17.6055 20.5535C16.9639 20.8029 16.2305 20.9734 15.158 21.0229C14.0819 21.0724 13.739 21.0834 11 21.0834C8.26102 21.0834 7.91819 21.0714 6.84294 21.0229C5.77044 20.9743 5.0371 20.8029 4.39544 20.5535C3.72253 20.3005 3.11286 19.9038 2.60885 19.3912C2.09587 18.8876 1.69889 18.2782 1.4456 17.6055C1.19719 16.9639 1.02669 16.2305 0.977187 15.158C0.927687 14.0809 0.916687 13.7381 0.916687 11C0.916687 8.26102 0.928604 7.91819 0.977187 6.84385C1.02577 5.76952 1.19719 5.03619 1.4456 4.39452C1.69927 3.72176 2.09655 3.11239 2.60977 2.60885C3.11306 2.09598 3.72212 1.69901 4.39452 1.4456C5.03619 1.19719 5.76952 1.02669 6.84202 0.977187H6.84294ZM15.0746 2.79219C14.0113 2.7436 13.6923 2.73352 11 2.73352C8.30777 2.73352 7.98877 2.7436 6.92544 2.79219C5.94185 2.8371 5.40835 3.00119 5.05269 3.1396C4.58244 3.32294 4.24602 3.54019 3.8931 3.8931C3.55856 4.21857 3.3011 4.61478 3.1396 5.05269C3.00119 5.40835 2.8371 5.94185 2.79219 6.92544C2.7436 7.98877 2.73352 8.30777 2.73352 11C2.73352 13.6923 2.7436 14.0113 2.79219 15.0746C2.8371 16.0582 3.00119 16.5917 3.1396 16.9474C3.30094 17.3846 3.55852 17.7815 3.8931 18.1069C4.21852 18.4415 4.61544 18.6991 5.05269 18.8604C5.40835 18.9989 5.94185 19.1629 6.92544 19.2079C7.98877 19.2564 8.30685 19.2665 11 19.2665C13.6932 19.2665 14.0113 19.2564 15.0746 19.2079C16.0582 19.1629 16.5917 18.9989 16.9474 18.8604C17.4176 18.6771 17.754 18.4599 18.1069 18.1069C18.4415 17.7815 18.6991 17.3846 18.8604 16.9474C18.9989 16.5917 19.1629 16.0582 19.2079 15.0746C19.2564 14.0113 19.2665 13.6923 19.2665 11C19.2665 8.30777 19.2564 7.98877 19.2079 6.92544C19.1629 5.94185 18.9989 5.40835 18.8604 5.05269C18.6771 4.58244 18.4599 4.24602 18.1069 3.8931C17.7815 3.55859 17.3852 3.30113 16.9474 3.1396C16.5917 3.00119 16.0582 2.8371 15.0746 2.79219ZM9.7121 14.1084C10.4314 14.4078 11.2323 14.4483 11.978 14.2228C12.7238 13.9973 13.3681 13.5199 13.801 12.8721C14.2339 12.2243 14.4284 11.4463 14.3514 10.671C14.2744 9.89575 13.9306 9.17124 13.3788 8.62127C13.027 8.26971 12.6016 8.00051 12.1333 7.83307C11.665 7.66563 11.1654 7.6041 10.6705 7.65292C10.1755 7.70174 9.69758 7.85968 9.27101 8.11539C8.84444 8.3711 8.47987 8.7182 8.20355 9.13172C7.92723 9.54523 7.74603 10.0149 7.67299 10.5068C7.59996 10.9988 7.63691 11.5008 7.78118 11.9767C7.92545 12.4527 8.17346 12.8907 8.50735 13.2593C8.84123 13.628 9.25269 13.9179 9.7121 14.1084ZM7.33519 7.33519C7.81646 6.85391 8.38781 6.47215 9.01663 6.21168C9.64544 5.95122 10.3194 5.81716 11 5.81716C11.6806 5.81716 12.3546 5.95122 12.9834 6.21168C13.6122 6.47215 14.1836 6.85391 14.6649 7.33519C15.1461 7.81646 15.5279 8.38781 15.7884 9.01663C16.0488 9.64544 16.1829 10.3194 16.1829 11C16.1829 11.6806 16.0488 12.3546 15.7884 12.9834C15.5279 13.6122 15.1461 14.1836 14.6649 14.6649C13.6929 15.6368 12.3746 16.1829 11 16.1829C9.62544 16.1829 8.30716 15.6368 7.33519 14.6649C6.36321 13.6929 5.81716 12.3746 5.81716 11C5.81716 9.62544 6.36321 8.30716 7.33519 7.33519ZM17.3324 6.58902C17.4516 6.47652 17.5471 6.34123 17.6131 6.19116C17.6792 6.0411 17.7144 5.87931 17.7168 5.71537C17.7192 5.55144 17.6887 5.38869 17.627 5.23676C17.5654 5.08484 17.4739 4.94682 17.358 4.83089C17.2421 4.71496 17.104 4.62346 16.9521 4.56183C16.8002 4.50019 16.6374 4.46966 16.4735 4.47205C16.3096 4.47444 16.1478 4.5097 15.9977 4.57574C15.8476 4.64178 15.7124 4.73726 15.5999 4.85652C15.3811 5.08846 15.2613 5.39655 15.2659 5.71537C15.2706 6.0342 15.3993 6.33866 15.6247 6.56413C15.8502 6.78959 16.1547 6.91831 16.4735 6.92296C16.7923 6.92761 17.1004 6.80782 17.3324 6.58902Z" fill="black"/>
</g>
<defs>
<clipPath id="clip0_315326_59">
<rect width="22" height="22" fill="white"/>
</clipPath>
</defs>
</svg>
