<svg width="32" height="32" viewBox="0 0 32 32" fill="none" xmlns="http://www.w3.org/2000/svg">
<path d="M16 17.3333C18.2091 17.3333 20 15.5424 20 13.3333C20 11.1241 18.2091 9.33325 16 9.33325C13.7909 9.33325 12 11.1241 12 13.3333C12 15.5424 13.7909 17.3333 16 17.3333Z" stroke="black" stroke-width="2" stroke-linecap="round" stroke-linejoin="round"/>
<path d="M16 2.66663C13.171 2.66663 10.4579 3.79043 8.45751 5.79082C6.45712 7.79121 5.33331 10.5043 5.33331 13.3333C5.33331 15.856 5.86931 17.5066 7.33331 19.3333L16 29.3333L24.6666 19.3333C26.1306 17.5066 26.6666 15.856 26.6666 13.3333C26.6666 10.5043 25.5428 7.79121 23.5425 5.79082C21.5421 3.79043 18.829 2.66663 16 2.66663Z" stroke="black" stroke-width="2" stroke-linecap="round" stroke-linejoin="round"/>
</svg>
